<?xml version="1.0" encoding="UTF-8"?>
<svg id="_圖層_2" data-name="圖層 2" xmlns="http://www.w3.org/2000/svg" xmlns:xlink="http://www.w3.org/1999/xlink" viewBox="0 0 709 312.25">
  <defs>
    <style>
      .cls-1 {
        fill: none;
      }

      .cls-2 {
        fill: #6b6c6b;
      }

      .cls-3 {
        fill: #fff;
      }

      .cls-4 {
        fill: #a50034;
      }

      .cls-5 {
        clip-path: url(#clippath);
      }
    </style>
    <clipPath id="clippath">
      <rect class="cls-1" width="709" height="312.25"/>
    </clipPath>
  </defs>
  <g id="_圖層_1-2" data-name="圖層 1">
    <g class="cls-5">
      <g>
        <path class="cls-2" d="M428.81,216.95h96.65v39.32h-143.3V54.37h46.65v162.58Z"/>
        <path class="cls-2" d="M628.03,179.29h37.98v35.33c-6.97,2.66-20.65,5.32-33.62,5.32-42.01,0-55.98-21.33-55.98-64.63s13.3-65.65,55.27-65.65c23.39,0,36.66,7.34,47.66,21.33l29.02-26.66c-17.72-25.27-48.65-32.93-77.69-32.93-65.29-.03-99.62,35.59-99.62,103.56s31.02,104.3,99.27,104.3c31.34,0,61.97-7.98,78.65-19.67v-97.96h-80.94v37.65Z"/>
        <path class="cls-4" d="M266.53,266.54c60.97-60.97,60.97-159.83,0-220.8-60.97-60.98-159.83-60.98-220.8,0-60.97,60.97-60.97,159.83,0,220.8,60.97,60.98,159.83,60.98,220.8,0Z"/>
        <path class="cls-3" d="M194.31,210.09h-31.91v-119.89h-11.8v131.72h11.82v-.08h31.91l-.03-11.75Z"/>
        <path class="cls-3" d="M273.89,161.09h-79.4v-11.76h91.04c.12,2.28.19,4.55.19,6.86,0,70.82-57.72,128.22-128.9,128.22S27.91,227.03,27.91,156.18,85.62,27.96,156.81,27.96c1.88,0,3.75.04,5.61.11v11.67c-1.86-.08-3.73-.12-5.59-.12-64.7,0-117.17,52.19-117.17,116.55s52.46,116.56,117.17,116.56,114.34-49.38,117.06-111.32v-.33Z"/>
        <path class="cls-3" d="M108.75,125.69c3.56-.02,7.03-1.09,9.99-3.08,2.95-1.99,5.25-4.81,6.6-8.1,1.35-3.29,1.7-6.92.99-10.4-.71-3.49-2.43-6.69-4.95-9.2-2.52-2.51-5.74-4.22-9.23-4.91-3.49-.69-7.11-.33-10.4,1.04-3.29,1.37-6.1,3.68-8.07,6.64-1.98,2.96-3.03,6.44-3.03,10,0,2.37.48,4.72,1.39,6.91.91,2.19,2.25,4.18,3.93,5.85,1.68,1.67,3.68,3,5.87,3.9,2.19.9,4.54,1.36,6.92,1.36Z"/>
      </g>
    </g>
  </g>
</svg>